<svg width="40" height="40" viewBox="0 0 40 40" fill="none" xmlns="http://www.w3.org/2000/svg">
<g clip-path="url(#clip0_954_16122)">
<path d="M30.9294 9.39656C26.6419 9.41719 23.3831 12.2528 22.1631 16.7716C20.1162 13.6216 18.5194 10.0184 17.6038 6.97656L13.0912 6.99781L13.1537 18.9591C13.1564 19.5222 13.0481 20.0803 12.8351 20.6016C12.6221 21.1229 12.3085 21.5971 11.9122 21.9972C11.5158 22.3972 11.0446 22.7153 10.5254 22.9333C10.0061 23.1513 9.44906 23.2648 8.88594 23.2675C7.74866 23.2729 6.65581 22.8263 5.84783 22.0259C5.44775 21.6296 5.12965 21.1584 4.91169 20.6391C4.69372 20.1199 4.58017 19.5628 4.5775 18.9997L4.515 7.03844L0 7.06031L0.0625 19.0222C0.08 23.9859 4.04625 27.9191 8.9 27.8941C13.7537 27.8691 17.6844 23.9028 17.6625 18.9378L17.6531 16.9066C18.5631 18.7066 19.7006 20.6191 20.9506 22.3066L18.1912 35.5216L22.8162 35.5003L24.8038 25.8991C26.6138 27.0197 28.6475 27.6866 31.0163 27.6753C35.9813 27.6534 40.025 23.5734 40 18.3816C39.9775 13.4153 35.895 9.37344 30.93 9.39594L30.9294 9.39656ZM30.9937 23.0503C29.1887 23.0584 27.38 22.2778 25.9075 21.0422L26.35 19.2297V19.1159C26.68 17.1947 27.6787 13.9184 31.0637 13.9034C32.2599 13.9013 33.4083 14.3725 34.2581 15.2142C35.1079 16.056 35.5901 17.1998 35.5994 18.3959C35.4975 20.9916 33.3638 23.0334 30.9931 23.0441L30.9937 23.0503Z" fill="#171717"/>
</g>
<defs>
<clipPath id="clip0_954_16122">
<rect width="40" height="40" fill="white"/>
</clipPath>
</defs>
</svg>
