<svg width="25" height="25" viewBox="0 0 25 25" fill="none" xmlns="http://www.w3.org/2000/svg">
<path d="M19.5987 7.69778C18.6515 8.01865 17.7852 7.15472 18.107 6.21011C18.2106 5.9058 19.6365 4.44046 20.0092 4.25522C20.9916 3.76705 22.0483 4.82099 21.5589 5.80067M19.5987 7.69778L21.0404 5.67613C20.9912 5.73885 20.9254 5.81619 20.8456 5.90473C20.6864 6.08144 20.4842 6.28893 20.2758 6.49057C20.0673 6.69239 19.8584 6.88285 19.6866 7.02663C19.6003 7.09886 19.5283 7.15517 19.4735 7.1941C19.4439 7.21511 19.4262 7.226 19.4187 7.23056C18.876 7.39949 18.407 6.92562 18.5738 6.39103C18.5785 6.38345 18.5893 6.36595 18.6102 6.33678C18.6492 6.28211 18.7056 6.21034 18.778 6.12429C18.9222 5.95301 19.1132 5.74467 19.3155 5.53671C19.5177 5.32893 19.7258 5.12718 19.903 4.96842C19.9917 4.88888 20.0693 4.82325 20.1322 4.77418C20.2017 4.72003 20.2322 4.70275 20.2318 4.70296C20.789 4.42609 21.3843 5.03128 21.1116 5.57717M19.5987 7.69778C19.9038 7.59443 21.3731 6.17238 21.5589 5.80067M19.5987 7.69778L21.1116 5.57717M21.5589 5.80067L21.1116 5.57717M21.5589 5.80067L21.1116 5.5772C21.1116 5.57719 21.1116 5.57717 21.1116 5.57717M12.3155 4.16799C12.4366 4.47958 12.572 4.58772 12.6478 4.61346C12.876 4.69102 13.0215 4.69862 13.1083 4.68398C13.1784 4.67215 13.2303 4.64368 13.2837 4.57477C13.3473 4.49278 13.419 4.34274 13.4723 4.08239C13.5249 3.8253 13.5537 3.49015 13.5537 3.06538C13.5537 2.18982 13.4227 1.74432 13.2761 1.55663C13.2199 1.48467 13.1654 1.4553 13.0951 1.44345C13.0092 1.42896 12.8654 1.4367 12.6415 1.51574L12.3155 4.16799ZM12.3155 4.16799C12.2008 3.87283 12.1352 3.4806 12.134 3.06939M12.3155 4.16799L12.134 3.06939M12.134 3.06939C12.1328 2.65822 12.1961 2.26496 12.3092 1.96794M12.134 3.06939L12.3092 1.96794M12.3092 1.96794C12.4286 1.65454 12.5641 1.54307 12.6415 1.51575L12.3092 1.96794ZM4.64703 5.04169C4.57571 5.2287 4.58219 5.42637 4.65753 5.57718L4.64703 5.04169ZM4.64703 5.04169C4.71862 4.854 4.84841 4.72763 4.98416 4.67966L4.64703 5.04169ZM4.19127 13.5207C4.19203 13.5204 4.19242 13.5203 4.1924 13.5203C4.1923 13.5199 4.16515 13.5266 4.09521 13.535C4.02217 13.5439 3.92671 13.5519 3.81289 13.5586C3.58592 13.572 3.30445 13.5791 3.01976 13.5794C2.73506 13.5796 2.45372 13.5731 2.227 13.5601C2.11331 13.5536 2.01803 13.5458 1.94522 13.5371C1.87605 13.5288 1.84919 13.5223 1.84909 13.5227C1.84907 13.5227 1.85027 13.5231 1.85254 13.5239C1.59193 13.4353 1.44007 13.1944 1.43753 12.9072C1.43502 12.6231 1.5792 12.3847 1.83112 12.292M4.19127 13.5207C4.45382 13.4305 4.60248 13.1898 4.60248 12.9061C4.60248 12.6232 4.45475 12.3831 4.19375 12.2923C4.19406 12.2924 4.19422 12.2925 4.19421 12.2925C4.1941 12.2929 4.16765 12.2867 4.09936 12.2788C4.02577 12.2703 3.92906 12.2626 3.81351 12.2562C3.58314 12.2434 3.29651 12.2368 3.00704 12.2369C2.71754 12.2369 2.43171 12.2436 2.20289 12.2564C2.08809 12.2628 1.9925 12.2705 1.92028 12.279C1.85611 12.2865 1.83123 12.2924 1.83112 12.292M4.19127 13.5207C4.19061 13.5209 4.18996 13.5212 4.1893 13.5214L4.34993 13.994L4.18932 13.5214C4.19012 13.5211 4.19078 13.5209 4.19127 13.5207ZM1.83112 12.292C1.83108 12.2918 1.83381 12.291 1.83877 12.2892L1.67239 11.8177M1.83112 12.292C1.83368 12.291 1.83625 12.2901 1.83884 12.2892L1.67239 11.8177M1.67239 11.8177C1.97729 11.7101 4.03377 11.7098 4.35018 11.8173V13.9948C4.02241 14.1062 2.0176 14.1081 1.69165 13.9973C0.695987 13.659 0.682799 12.1671 1.67239 11.8177ZM21.5975 13.5265C21.5976 13.5261 21.6217 13.5317 21.6839 13.5389C21.7547 13.5471 21.8486 13.5546 21.9615 13.5607C22.1866 13.5729 22.4679 13.579 22.753 13.5786C23.038 13.5782 23.3202 13.5713 23.5471 13.5584C23.6609 13.5519 23.7561 13.5442 23.8285 13.5357C23.8955 13.5279 23.9214 13.5217 23.9216 13.5221C23.9216 13.5222 23.9205 13.5226 23.9184 13.5233M21.5975 13.5265L23.9166 13.5239C23.9173 13.5237 23.9179 13.5235 23.9184 13.5233M21.5975 13.5265C21.0136 13.3134 21.0105 12.5089 21.5819 12.288M21.5975 13.5265L21.5819 12.288M23.9184 13.5233C24.4699 13.334 24.4716 12.484 23.9235 12.2906M23.9184 13.5233L21.5819 12.288M21.5819 12.288C21.5868 12.2873 21.6105 12.2826 21.6621 12.2767C21.7324 12.2687 21.8265 12.2614 21.9404 12.2553C22.1673 12.2432 22.4526 12.2371 22.7419 12.2372C23.0311 12.2374 23.318 12.2438 23.5478 12.2562C23.6632 12.2623 23.7595 12.2698 23.8324 12.278C23.898 12.2853 23.9234 12.2911 23.9235 12.2907C23.9235 12.2907 23.9235 12.2907 23.9235 12.2906M23.9235 12.2906C23.9231 12.2904 23.9207 12.2896 23.9166 12.2882C23.9189 12.289 23.9212 12.2898 23.9235 12.2906ZM18.5739 19.4212C18.463 19.0619 18.6618 18.6889 18.9546 18.5854C19.1053 18.5323 19.2498 18.5281 19.4186 18.5815C19.426 18.586 19.4437 18.5969 19.4735 18.618C19.5283 18.657 19.6003 18.7133 19.6866 18.7855C19.8584 18.9293 20.0673 19.1198 20.2758 19.3216C20.4842 19.5232 20.6864 19.7307 20.8456 19.9074C20.9254 19.996 20.9912 20.0733 21.0404 20.136C21.0912 20.2009 21.1096 20.2316 21.1114 20.2347C21.1116 20.2349 21.1116 20.235 21.1116 20.235M18.5739 19.4212L18.107 19.602C18.2106 19.9063 19.6365 21.3717 20.0092 21.5569C20.9916 22.0451 22.0483 20.9912 21.5589 20.0115M18.5739 19.4212C18.5786 19.4289 18.5895 19.4464 18.6102 19.4754C18.6492 19.53 18.7056 19.6018 18.778 19.6879C18.9222 19.8591 19.1132 20.0675 19.3155 20.2754C19.5177 20.4832 19.7258 20.685 19.903 20.8437C19.9917 20.9233 20.0693 20.9889 20.1322 21.038C20.2017 21.0921 20.2322 21.1094 20.2318 21.1092M18.5739 19.4212L20.2318 21.1092M21.1116 20.235L21.5589 20.0115M21.1116 20.235C21.3843 20.7809 20.789 21.3861 20.2318 21.1092M21.1116 20.235C21.1116 20.235 21.1116 20.235 21.1116 20.2349L21.5589 20.0115M21.5589 20.0115L20.2318 21.1092M13.5039 23.912C13.3946 24.2223 13.0121 24.4186 12.6552 24.2974C12.5738 24.2697 12.4371 24.159 12.3162 23.8502C12.2012 23.5564 12.1359 23.1659 12.1358 22.7555C12.1356 22.3453 12.2006 21.9517 12.3162 21.6522C12.4376 21.338 12.5777 21.2156 12.667 21.1824C12.9736 21.0686 13.3788 21.2465 13.5081 21.5964C13.5079 21.5976 13.5135 21.6218 13.5205 21.6821C13.5287 21.7526 13.5362 21.8461 13.5423 21.9587C13.5546 22.1831 13.5607 22.4636 13.5603 22.7478C13.5599 23.032 13.5529 23.3134 13.54 23.5396C13.5335 23.653 13.5258 23.7479 13.5173 23.82C13.5095 23.8864 13.5033 23.9121 13.5038 23.9123C13.5038 23.9123 13.5038 23.9122 13.5039 23.912ZM13.5039 23.912C13.5045 23.9103 13.5051 23.9087 13.5056 23.9071M13.5039 23.912C13.5042 23.9114 13.5047 23.9097 13.5056 23.9071M13.5056 23.9071L13.5056 23.907L13.5056 23.9071ZM9.28307 8.78258L9.28308 8.78257C10.1204 8.05964 10.8857 7.71026 12.2731 7.45642C14.9676 6.96346 17.0533 8.63454 17.8886 10.9039C18.7244 13.1749 18.2534 15.9101 15.9224 17.4599C13.1248 19.3198 10.2084 18.2764 8.59302 16.1639C6.97802 14.0518 6.74291 10.9757 9.28307 8.78258ZM6.0286 6.96135C5.5001 6.69146 4.96176 6.18599 4.65754 5.57719L4.98419 4.67965C5.1506 4.62089 5.3959 4.64087 5.71277 4.80699C6.02347 4.96988 6.34269 5.24464 6.60452 5.57231C6.86784 5.90184 7.04587 6.25062 7.11056 6.54209C7.17536 6.83406 7.1149 6.9866 7.03293 7.06835C6.97931 7.12183 6.88494 7.16948 6.7086 7.16419C6.52743 7.15876 6.292 7.09585 6.0286 6.96135ZM5.53737 21.1092C4.98015 21.3861 4.38483 20.7809 4.65752 20.235C4.65701 20.236 4.65728 20.2356 4.65852 20.2337C4.66318 20.2265 4.68158 20.198 4.72458 20.1435C4.77323 20.0818 4.8387 20.0051 4.91827 19.9168C5.07703 19.7406 5.27938 19.5322 5.48752 19.329C5.69581 19.1257 5.90444 18.933 6.07518 18.7874C6.16098 18.7142 6.2324 18.6571 6.28655 18.6176C6.31351 18.5979 6.33023 18.5871 6.33822 18.582C6.88527 18.4066 7.36169 18.8872 7.19528 19.4211C7.19064 19.4287 7.17976 19.4462 7.15896 19.4754C7.11994 19.53 7.06351 19.6018 6.99108 19.6879C6.84692 19.8591 6.65596 20.0675 6.45359 20.2754C6.2514 20.4832 6.04335 20.685 5.86615 20.8437C5.77737 20.9233 5.69981 20.9889 5.63689 21.038C5.56747 21.0921 5.53693 21.1094 5.53737 21.1092Z" stroke="white"/>
</svg>
