<svg xmlns="http://www.w3.org/2000/svg" viewBox="0 0 438.57 165.53"><defs><style>.cls-1,.cls-3{fill:#fff;}.cls-1,.cls-2{fill-rule:evenodd;}.cls-2{fill:#acacac;}.cls-4{fill:#f8f9f9;}</style></defs><polygon class="cls-1" points="48.15 60.06 152 140.73 1.67 140.73 48.15 60.06"/><path class="cls-1" d="M45.43,25.37,81,3.26q39.51,68.43,78.85,136.57Z"/><polygon class="cls-2" points="56.67 45.42 152 140.73 48.15 60.06 56.67 45.42"/><path class="cls-1" d="M374.74,53.14V93.65h-8.87V44.36h1.32c14.57,0,29.15,0,43.72,0,6.14,0,11.19-2.43,14.62-7.64a15.58,15.58,0,0,0-9.18-23.63,22.78,22.78,0,0,0-5.63-.75c-13.22-.07-26.45,0-39.67-.05a1.49,1.49,0,0,0-1.59,1q-19.89,39.64-39.82,79.27L329,93.61,281.34,3.5h1.23c2.46,0,4.93.18,7.37,0,2-.2,2.86.65,3.72,2.31Q309.47,36.42,325.41,67c1.18,2.26,2.35,4.53,3.62,7,.3-.55.53-.91.71-1.3,6.27-12.83,12.58-25.65,18.77-38.52,4.72-9.81,9.3-19.7,13.9-29.57a1.67,1.67,0,0,1,1.78-1.15q24.35.06,48.71,0a28.76,28.76,0,0,1,10.54,1.91A19.29,19.29,0,0,1,435.52,18.6a29.11,29.11,0,0,1-.45,19.06c-3,7.66-8.43,12.74-16.43,14.83a23.77,23.77,0,0,1-6,.62c-12.19.06-24.37,0-36.56,0Z"/><path class="cls-1" d="M242.55,17.15v1.08c0,13.85,0,27.69,0,41.54a49.75,49.75,0,0,1-1.37,12.86c-2.7,10.08-9,16.68-19.09,19.41-8.72,2.36-17.59,2.67-26.22,0-10.2-3.2-16.33-10.37-18.36-20.94a66.48,66.48,0,0,1-1-12.6q0-26.74,0-53.48V3.58h8.86V4.92q0,29.09.05,58.15A22.06,22.06,0,0,0,189.82,77a19.1,19.1,0,0,0,10.69,6.92,33.07,33.07,0,0,0,20-.88c7.63-2.81,11.74-8.58,12.83-16.54a43.12,43.12,0,0,0,.31-5.9q0-27.78,0-55.56V3.57c.42,0,.75-.06,1.08-.06,3.85,0,7.69,0,11.53,0a1.47,1.47,0,0,1,1.57,1q15.4,31.67,30.88,63.31c2.44,5,4.87,10,7.34,15a1.82,1.82,0,0,1,0,1.83c-1.39,2.74-2.73,5.52-4.09,8.28-.09.17-.2.34-.41.71l-38.76-76.5Z"/><path class="cls-3" d="M180.32,113.57h11c8.62,0,14.43,5.54,14.43,13.46s-5.81,13.47-14.43,13.47h-11ZM191.13,138c7.15,0,11.77-4.54,11.77-11s-4.62-11-11.77-11h-8v22Z"/><path class="cls-3" d="M229.4,113.57h2.85V140.5H229.4Z"/><path class="cls-3" d="M277.3,127H280V137.3a14.88,14.88,0,0,1-9.89,3.43c-8.19,0-14.2-5.81-14.2-13.7s6-13.7,14.24-13.7c4.08,0,7.62,1.31,10,3.89L278.41,119a11,11,0,0,0-8.12-3.16c-6.65,0-11.54,4.74-11.54,11.16s4.89,11.16,11.5,11.16a11.69,11.69,0,0,0,7.05-2.08Z"/><path class="cls-3" d="M305.38,113.57h2.84V140.5h-2.84Z"/><path class="cls-3" d="M339.54,116h-9.47v-2.46h21.78V116h-9.47V140.5h-2.84Z"/><path class="cls-3" d="M389.24,133.3h-15L371,140.5h-3l12.31-26.93h2.81l12.31,26.93h-3Zm-1-2.31-6.46-14.46L375.27,131Z"/><path class="cls-3" d="M417.24,113.57h2.85V138h15.08v2.47H417.24Z"/><path class="cls-4" d="M1.67,149.17H8.61v1.4H3.33v4.28H8.2v1.37H3.33v5.83H1.67Z"/><path class="cls-4" d="M14.82,156.26v1.24H10.1v-1.24Z"/><path class="cls-4" d="M16.55,160.33a4.38,4.38,0,0,0,2.22.67c1.22,0,1.8-.61,1.8-1.38s-.48-1.24-1.72-1.7c-1.67-.59-2.45-1.51-2.45-2.62,0-1.49,1.21-2.71,3.19-2.71a4.71,4.71,0,0,1,2.28.57l-.42,1.23a3.64,3.64,0,0,0-1.9-.54c-1,0-1.54.58-1.54,1.26s.55,1.11,1.75,1.57c1.61.61,2.43,1.41,2.43,2.79,0,1.63-1.26,2.77-3.46,2.77a5.31,5.31,0,0,1-2.6-.63Z"/><path class="cls-4" d="M26,157h0c.23-.32.55-.72.82-1l2.72-3.2h2L28,156.6l4.07,5.45H30.06l-3.19-4.43-.86.95v3.48H24.35V148.48H26Z"/><path class="cls-4" d="M38.78,162.05l-.14-1.17h0a3.44,3.44,0,0,1-2.83,1.38,2.64,2.64,0,0,1-2.83-2.65c0-2.24,2-3.46,5.56-3.45V156a1.91,1.91,0,0,0-2.1-2.14,4.62,4.62,0,0,0-2.41.69l-.38-1.11a5.79,5.79,0,0,1,3-.82c2.83,0,3.51,1.93,3.51,3.78v3.46a12.51,12.51,0,0,0,.16,2.22Zm-.25-4.72c-1.84,0-3.92.29-3.92,2.08A1.49,1.49,0,0,0,36.2,161a2.3,2.3,0,0,0,2.23-1.55,1.71,1.71,0,0,0,.1-.54v-1.6Z"/><path class="cls-4" d="M44.81,150.14v2.66h2.41v1.28H44.81v5c0,1.15.33,1.8,1.26,1.8a3.63,3.63,0,0,0,1-.12l.08,1.26a4,4,0,0,1-1.49.23,2.34,2.34,0,0,1-1.82-.71,3.4,3.4,0,0,1-.65-2.4v-5H41.74V152.8h1.43v-2.22Z"/><path class="cls-4" d="M51.14,150.14v2.66h2.41v1.28H51.14v5c0,1.15.33,1.8,1.26,1.8a3.54,3.54,0,0,0,1-.12l.08,1.26a4,4,0,0,1-1.49.23,2.36,2.36,0,0,1-1.82-.71,3.45,3.45,0,0,1-.64-2.4v-5H48.06V152.8H49.5v-2.22Z"/><path class="cls-4" d="M59.93,160.87a6.64,6.64,0,0,0,1.35-.06,4.68,4.68,0,0,0,2.6-1.2,5.5,5.5,0,0,0,1.65-3.31h-.06a3.65,3.65,0,0,1-2.93,1.34,3.6,3.6,0,0,1-3.67-3.8,4.27,4.27,0,0,1,4.25-4.42c2.54,0,4.11,2.07,4.11,5.24a7.88,7.88,0,0,1-2.14,5.83,6.32,6.32,0,0,1-3.62,1.66,7.42,7.42,0,0,1-1.54.1v-1.38Zm.61-7.15a2.39,2.39,0,0,0,2.39,2.64,2.81,2.81,0,0,0,2.45-1.3,1.17,1.17,0,0,0,.15-.61c0-2.13-.78-3.75-2.54-3.75C61.55,150.7,60.54,152,60.54,153.72Z"/><path class="cls-4" d="M68.76,162.05v-1l1.31-1.28c3.18-3,4.61-4.62,4.63-6.5a2.21,2.21,0,0,0-2.47-2.42,4.26,4.26,0,0,0-2.64,1.05l-.53-1.19a5.48,5.48,0,0,1,3.52-1.26,3.49,3.49,0,0,1,3.8,3.61c0,2.3-1.66,4.15-4.28,6.67l-1,.92v0h5.57v1.4H68.76Z"/><path class="cls-4" d="M86.81,155.71c0,4.22-1.56,6.55-4.31,6.55-2.43,0-4.07-2.27-4.11-6.38s1.8-6.46,4.32-6.46S86.81,151.75,86.81,155.71Zm-6.74.19c0,3.23,1,5.06,2.52,5.06,1.72,0,2.54-2,2.54-5.18s-.78-5.06-2.52-5.06C81.14,150.72,80.07,152.52,80.07,155.9Z"/><path class="cls-4" d="M92,151.2h0l-2.16,1.16-.32-1.28,2.71-1.45h1.44v12.42H92V151.2Z"/><path class="cls-4" d="M105.26,150.82a6.49,6.49,0,0,0-1.27.07,5.06,5.06,0,0,0-4.32,4.42h.06a3.79,3.79,0,0,1,6.75,2.58,4.15,4.15,0,0,1-4.13,4.37c-2.66,0-4.4-2.06-4.4-5.29a7.77,7.77,0,0,1,2.11-5.6,6.74,6.74,0,0,1,4-1.83,7.79,7.79,0,0,1,1.23-.1v1.38Zm-.48,7.16c0-1.78-1-2.85-2.56-2.85a2.75,2.75,0,0,0-2.41,1.53,1.39,1.39,0,0,0-.19.75c0,2,1,3.55,2.73,3.55C103.8,161,104.78,159.76,104.78,158Z"/><path class="cls-4" d="M108.37,160.12a5.64,5.64,0,0,0,2.75.78c2.16,0,2.83-1.37,2.81-2.4,0-1.74-1.59-2.49-3.21-2.49h-.94v-1.26h.94c1.22,0,2.77-.63,2.77-2.1,0-1-.63-1.87-2.18-1.87a4.56,4.56,0,0,0-2.48.82l-.45-1.22a5.94,5.94,0,0,1,3.25-1c2.45,0,3.56,1.45,3.56,3a3.1,3.1,0,0,1-2.29,2.93v0a3.23,3.23,0,0,1,2.77,3.19c0,2-1.55,3.73-4.53,3.73a6.31,6.31,0,0,1-3.23-.84Z"/><path class="cls-4" d="M122.2,156.26v1.24h-4.72v-1.24Z"/><path class="cls-4" d="M130.72,150.82a6.43,6.43,0,0,0-1.26.07,5.06,5.06,0,0,0-4.32,4.42h.06a3.79,3.79,0,0,1,6.75,2.58,4.15,4.15,0,0,1-4.13,4.37c-2.66,0-4.39-2.06-4.39-5.29a7.77,7.77,0,0,1,2.1-5.6,6.74,6.74,0,0,1,4-1.83,7.77,7.77,0,0,1,1.22-.1v1.38Zm-.47,7.16c0-1.78-1-2.85-2.56-2.85a2.76,2.76,0,0,0-2.41,1.53,1.39,1.39,0,0,0-.19.75c0,2,1,3.55,2.73,3.55C129.27,161,130.25,159.76,130.25,158Z"/><path class="cls-4" d="M137.09,151.2h0l-2.16,1.16-.32-1.28,2.71-1.45h1.43v12.42h-1.62V151.2Z"/><path class="cls-4" d="M143.64,160.12a5.71,5.71,0,0,0,2.75.78c2.16,0,2.83-1.37,2.81-2.4,0-1.74-1.59-2.49-3.21-2.49h-.94v-1.26H146c1.22,0,2.77-.63,2.77-2.1,0-1-.63-1.87-2.17-1.87a4.57,4.57,0,0,0-2.49.82l-.44-1.22a5.88,5.88,0,0,1,3.25-1c2.44,0,3.55,1.45,3.55,3a3.09,3.09,0,0,1-2.29,2.93v0a3.23,3.23,0,0,1,2.77,3.19c0,2-1.55,3.73-4.53,3.73a6.34,6.34,0,0,1-3.23-.84Z"/><path class="cls-4" d="M153,162.05v-1l1.32-1.28c3.17-3,4.61-4.62,4.63-6.5a2.22,2.22,0,0,0-2.47-2.42,4.24,4.24,0,0,0-2.64,1.05l-.53-1.19a5.47,5.47,0,0,1,3.51-1.26,3.5,3.5,0,0,1,3.81,3.61c0,2.3-1.67,4.15-4.29,6.67l-1,.92v0H161v1.4H153Z"/></svg>